<mxfile host="app.diagrams.net" modified="2021-10-27T07:06:19.658Z" agent="5.0 (Windows)" etag="uEyEELJexAP8Le62dXjG" version="15.5.9" type="github">
  <diagram id="apy8Ngh781oBLHAfVLGE" name="Page-1">
    <mxGraphModel dx="1038" dy="546" grid="1" gridSize="10" guides="1" tooltips="1" connect="1" arrows="1" fold="1" page="1" pageScale="1" pageWidth="3300" pageHeight="4681" math="0" shadow="0">
      <root>
        <mxCell id="0" />
        <mxCell id="1" parent="0" />
        <mxCell id="m64D21JxlKDrZVXCHpGl-1" value="&lt;div&gt;Majitel&lt;/div&gt;" style="shape=umlActor;verticalLabelPosition=bottom;verticalAlign=top;html=1;outlineConnect=0;" parent="1" vertex="1">
          <mxGeometry x="70" y="80" width="30" height="60" as="geometry" />
        </mxCell>
        <mxCell id="m64D21JxlKDrZVXCHpGl-2" value="&lt;div&gt;Asistent&lt;/div&gt;&lt;div&gt;&lt;br&gt;&lt;/div&gt;" style="shape=umlActor;verticalLabelPosition=bottom;verticalAlign=top;html=1;outlineConnect=0;" parent="1" vertex="1">
          <mxGeometry x="70" y="190" width="30" height="60" as="geometry" />
        </mxCell>
        <mxCell id="m64D21JxlKDrZVXCHpGl-3" value="Recepční" style="shape=umlActor;verticalLabelPosition=bottom;verticalAlign=top;html=1;outlineConnect=0;" parent="1" vertex="1">
          <mxGeometry x="70" y="310" width="30" height="60" as="geometry" />
        </mxCell>
        <mxCell id="m64D21JxlKDrZVXCHpGl-6" value="Filmový štáb" style="shape=umlActor;verticalLabelPosition=bottom;verticalAlign=top;html=1;outlineConnect=0;" parent="1" vertex="1">
          <mxGeometry x="70" y="410" width="30" height="60" as="geometry" />
        </mxCell>
        <mxCell id="m64D21JxlKDrZVXCHpGl-7" value="Technik" style="shape=umlActor;verticalLabelPosition=bottom;verticalAlign=top;html=1;outlineConnect=0;" parent="1" vertex="1">
          <mxGeometry x="70" y="500" width="30" height="60" as="geometry" />
        </mxCell>
        <mxCell id="m64D21JxlKDrZVXCHpGl-9" value="Auto-opravar" style="shape=umlActor;verticalLabelPosition=bottom;verticalAlign=top;html=1;outlineConnect=0;" parent="1" vertex="1">
          <mxGeometry x="70" y="610" width="30" height="60" as="geometry" />
        </mxCell>
        <mxCell id="m64D21JxlKDrZVXCHpGl-11" value="IS půjčovny vozidel filmovým štábům" style="swimlane;" parent="1" vertex="1">
          <mxGeometry x="280" y="80" width="510" height="910" as="geometry" />
        </mxCell>
        <mxCell id="m64D21JxlKDrZVXCHpGl-13" value="UC001: Zjištění, zda-li je vozidlo k dispozici" style="ellipse;whiteSpace=wrap;html=1;" parent="m64D21JxlKDrZVXCHpGl-11" vertex="1">
          <mxGeometry x="40" y="50" width="140" height="70" as="geometry" />
        </mxCell>
        <mxCell id="m64D21JxlKDrZVXCHpGl-15" value="UC002: Založení rezervace" style="ellipse;whiteSpace=wrap;html=1;" parent="m64D21JxlKDrZVXCHpGl-11" vertex="1">
          <mxGeometry x="40" y="120" width="140" height="70" as="geometry" />
        </mxCell>
        <mxCell id="m64D21JxlKDrZVXCHpGl-17" value="UC003: Vložení časového údaje o rezervaci" style="ellipse;whiteSpace=wrap;html=1;" parent="m64D21JxlKDrZVXCHpGl-11" vertex="1">
          <mxGeometry x="40" y="190" width="140" height="70" as="geometry" />
        </mxCell>
        <mxCell id="m64D21JxlKDrZVXCHpGl-21" value="UC005: Schválení rezervace" style="ellipse;whiteSpace=wrap;html=1;" parent="m64D21JxlKDrZVXCHpGl-11" vertex="1">
          <mxGeometry x="210" y="60" width="140" height="70" as="geometry" />
        </mxCell>
        <mxCell id="m64D21JxlKDrZVXCHpGl-23" value="UC006: Zamítnutí rezervace" style="ellipse;whiteSpace=wrap;html=1;" parent="m64D21JxlKDrZVXCHpGl-11" vertex="1">
          <mxGeometry x="210" y="130" width="140" height="70" as="geometry" />
        </mxCell>
        <mxCell id="rS2RggNhqOTAi8GMfx9j-12" value="Ukončení výpůjčky" style="ellipse;whiteSpace=wrap;html=1;" vertex="1" parent="m64D21JxlKDrZVXCHpGl-11">
          <mxGeometry x="220" y="200" width="140" height="70" as="geometry" />
        </mxCell>
        <mxCell id="rS2RggNhqOTAi8GMfx9j-14" value="Schválení zápůjčky ostatním zájemcům" style="ellipse;whiteSpace=wrap;html=1;" vertex="1" parent="m64D21JxlKDrZVXCHpGl-11">
          <mxGeometry x="210" y="270" width="140" height="70" as="geometry" />
        </mxCell>
        <mxCell id="m64D21JxlKDrZVXCHpGl-29" value="&lt;div&gt;Uživatel&lt;/div&gt;&lt;div&gt;&lt;br&gt;&lt;/div&gt;" style="shape=umlActor;verticalLabelPosition=bottom;verticalAlign=top;html=1;outlineConnect=0;" parent="1" vertex="1">
          <mxGeometry x="70" y="710" width="30" height="60" as="geometry" />
        </mxCell>
        <mxCell id="rS2RggNhqOTAi8GMfx9j-1" value="" style="endArrow=classic;html=1;rounded=0;entryX=0;entryY=0.5;entryDx=0;entryDy=0;" edge="1" parent="1" target="m64D21JxlKDrZVXCHpGl-13">
          <mxGeometry width="50" height="50" relative="1" as="geometry">
            <mxPoint x="110" y="320" as="sourcePoint" />
            <mxPoint x="310" y="170" as="targetPoint" />
          </mxGeometry>
        </mxCell>
        <mxCell id="rS2RggNhqOTAi8GMfx9j-2" value="" style="endArrow=classic;html=1;rounded=0;entryX=0;entryY=0.5;entryDx=0;entryDy=0;" edge="1" parent="1" target="m64D21JxlKDrZVXCHpGl-15">
          <mxGeometry width="50" height="50" relative="1" as="geometry">
            <mxPoint x="110" y="330" as="sourcePoint" />
            <mxPoint x="160" y="320" as="targetPoint" />
          </mxGeometry>
        </mxCell>
        <mxCell id="rS2RggNhqOTAi8GMfx9j-3" value="" style="endArrow=classic;html=1;rounded=0;entryX=0;entryY=0.5;entryDx=0;entryDy=0;" edge="1" parent="1" source="m64D21JxlKDrZVXCHpGl-3" target="m64D21JxlKDrZVXCHpGl-17">
          <mxGeometry width="50" height="50" relative="1" as="geometry">
            <mxPoint x="170" y="370" as="sourcePoint" />
            <mxPoint x="220" y="320" as="targetPoint" />
          </mxGeometry>
        </mxCell>
        <mxCell id="rS2RggNhqOTAi8GMfx9j-4" value="" style="endArrow=classic;html=1;rounded=0;entryX=0;entryY=0.5;entryDx=0;entryDy=0;" edge="1" parent="1" target="m64D21JxlKDrZVXCHpGl-21">
          <mxGeometry width="50" height="50" relative="1" as="geometry">
            <mxPoint x="110" y="120" as="sourcePoint" />
            <mxPoint x="150" y="90" as="targetPoint" />
          </mxGeometry>
        </mxCell>
        <mxCell id="rS2RggNhqOTAi8GMfx9j-6" value="" style="endArrow=classic;html=1;rounded=0;entryX=0;entryY=0.5;entryDx=0;entryDy=0;" edge="1" parent="1" target="m64D21JxlKDrZVXCHpGl-21">
          <mxGeometry width="50" height="50" relative="1" as="geometry">
            <mxPoint x="110" y="250" as="sourcePoint" />
            <mxPoint x="160" y="200" as="targetPoint" />
          </mxGeometry>
        </mxCell>
        <mxCell id="rS2RggNhqOTAi8GMfx9j-7" value="" style="endArrow=classic;html=1;rounded=0;entryX=0;entryY=0.5;entryDx=0;entryDy=0;" edge="1" parent="1" target="m64D21JxlKDrZVXCHpGl-23">
          <mxGeometry width="50" height="50" relative="1" as="geometry">
            <mxPoint x="110" y="140" as="sourcePoint" />
            <mxPoint x="160" y="120" as="targetPoint" />
          </mxGeometry>
        </mxCell>
        <mxCell id="rS2RggNhqOTAi8GMfx9j-9" value="" style="endArrow=classic;html=1;rounded=0;entryX=0;entryY=0.5;entryDx=0;entryDy=0;" edge="1" parent="1" target="m64D21JxlKDrZVXCHpGl-23">
          <mxGeometry width="50" height="50" relative="1" as="geometry">
            <mxPoint x="110" y="220" as="sourcePoint" />
            <mxPoint x="160" y="200" as="targetPoint" />
          </mxGeometry>
        </mxCell>
        <mxCell id="rS2RggNhqOTAi8GMfx9j-11" value="" style="endArrow=classic;html=1;rounded=0;entryX=0;entryY=0.5;entryDx=0;entryDy=0;" edge="1" parent="1" target="rS2RggNhqOTAi8GMfx9j-12">
          <mxGeometry width="50" height="50" relative="1" as="geometry">
            <mxPoint x="110" y="230" as="sourcePoint" />
            <mxPoint x="520" y="320" as="targetPoint" />
          </mxGeometry>
        </mxCell>
        <mxCell id="rS2RggNhqOTAi8GMfx9j-16" value="" style="endArrow=classic;html=1;rounded=0;entryX=0;entryY=0.5;entryDx=0;entryDy=0;" edge="1" parent="1" target="rS2RggNhqOTAi8GMfx9j-14">
          <mxGeometry width="50" height="50" relative="1" as="geometry">
            <mxPoint x="110" y="150" as="sourcePoint" />
            <mxPoint x="160" y="110" as="targetPoint" />
          </mxGeometry>
        </mxCell>
      </root>
    </mxGraphModel>
  </diagram>
</mxfile>
